<?xml version="1.0" encoding="UTF-8" standalone="no"?><!DOCTYPE svg PUBLIC "-//W3C//DTD SVG 1.1//EN" "http://www.w3.org/Graphics/SVG/1.1/DTD/svg11.dtd"><svg width="100%" height="100%" viewBox="0 0 3508 4961" version="1.1" xmlns="http://www.w3.org/2000/svg" xmlns:xlink="http://www.w3.org/1999/xlink" xml:space="preserve" xmlns:serif="http://www.serif.com/" style="fill-rule:evenodd;clip-rule:evenodd;stroke-linecap:round;stroke-linejoin:round;stroke-miterlimit:1.5;"><g opacity="0.5"><path d="M3241.096,146.314c-0.792,1.015 0.605,2.843 -0.187,3.858c-0.681,0.873 -17.956,6.494 -22.987,8.57c-45.304,18.692 -44.902,19.023 -90.418,37.629c-3.205,1.31 -21.115,8.631 -39.935,16.686c-210.041,89.898 -209.72,90.076 -227.98,97.854c-1310.24,558.123 -1309.003,560.847 -1423.102,608.974c-393.742,166.082 -678.593,316.594 -935.675,255.029c-107.93,-25.847 -195.723,-108.383 -221.871,-210.214c-78.567,-305.966 280.022,-682.688 355.965,-767.077c198.689,-220.788 -147.614,135.734 -22.294,404.996c54.414,116.913 201.107,174.075 419.102,129.253c83.657,-17.201 2014.67,-534.074 2049.766,-542.654c148.001,-36.183 146.4,-43.351 159.615,-42.904Z" style="fill-opacity:1;"/></g><g id="Camada1"><g><path d="M698.223,128.65c5.656,9.292 -75.877,139.804 -95.269,206.51c-17.709,60.918 -26.201,144.573 -10.446,203.959c15.756,59.386 57.766,113.942 103.938,152.358c45.257,37.655 122.88,51.274 167.309,49.487c30.333,-1.22 96.718,-1.777 96.718,-1.777c0,0 71.854,-11.479 111.681,-21.047c65.85,-15.82 282.533,-77.061 282.533,-77.061l412.184,-103.725l426.553,-114.185l278.519,-74.823l316.352,-88.328l295.719,-72.718l157.148,-43.631l-297.736,128.468l-409.353,170.888l-296.01,124.831l-351.469,152.707l-346.621,150.283l-344.618,147.149c0,0 -320.772,152.388 -455.278,166.333c-125.618,13.023 -251.027,0.136 -335.314,-56.259c-108.84,-72.822 -125.188,-149.156 -137.002,-243.94c-8.933,-71.67 42.177,-216.907 42.177,-216.907c0,0 26.188,-63.726 63.011,-129.301c35.086,-62.481 80.425,-126.392 98.295,-148.319c30.781,-37.772 105.326,-126.388 105.326,-126.388c0,0 115.998,-143.857 121.653,-134.565Z"/></g><path d="M3079.031,3507.897c-37.867,0 -66.067,-4.6 -84.6,-13.8c-18.533,-9.2 -28.067,-25.533 -28.6,-49c-3.467,9.867 -4.6,19.067 -3.4,27.6c1.2,8.533 3.267,16.933 6.2,25.2c-28.533,0.8 -52.267,1.667 -71.2,2.6c-18.933,0.933 -36.133,1.267 -51.6,1c-4,-21.333 -6.2,-42.467 -6.6,-63.4c-0.4,-20.933 1.133,-43.133 4.6,-66.6c14.667,0 29.333,1.467 44,4.4c14.667,2.933 28.533,7 41.6,12.2c13.067,5.2 24.267,11.533 33.6,19l8,-8.4c-9.067,-7.2 -18.867,-13.267 -29.4,-18.2c-10.533,-4.933 -21.133,-9.133 -31.8,-12.6c-13.6,-4.8 -25.933,-10.933 -37,-18.4c-11.067,-7.467 -19.8,-16.8 -26.2,-28c-6.4,-11.2 -9.6,-24.533 -9.6,-40c0,-19.2 4.4,-36.6 13.2,-52.2c8.8,-15.6 23.267,-28 43.4,-37.2c20.133,-9.2 47.267,-13.8 81.4,-13.8c33.867,0 59.733,4.733 77.6,14.2c17.867,9.467 27.067,26.867 27.6,52.2c3.733,-10.133 4.933,-19.6 3.6,-28.4c-1.333,-8.8 -3.467,-18.133 -6.4,-28c19.2,-0.267 35.2,-0.6 48,-1c12.8,-0.4 24.133,-0.867 34,-1.4c9.867,-0.533 19.867,-0.8 30,-0.8c4,19.2 6.2,39.933 6.6,62.2c0.4,22.267 -1.133,45 -4.6,68.2c-15.2,-0.267 -28.733,-1.667 -40.6,-4.2c-11.867,-2.533 -22.867,-6.333 -33,-11.4c-10.133,-5.067 -20.533,-11.333 -31.2,-18.8l-7.2,9.2c10.133,7.467 20.533,13.8 31.2,19c10.667,5.2 20.667,9.933 30,14.2c13.867,6.133 25.6,12.933 35.2,20.4c9.6,7.467 17,16.533 22.2,27.2c5.2,10.667 7.8,24 7.8,40c0,22.133 -3.8,39.733 -11.4,52.8c-7.6,13.067 -17.667,22.733 -30.2,29c-12.533,6.267 -26.2,10.333 -41,12.2c-14.8,1.867 -29.533,2.8 -44.2,2.8Z"/><path d="M3079.031,3507.897c-37.867,0 -66.067,-4.6 -84.6,-13.8c-18.533,-9.2 -28.067,-25.533 -28.6,-49c-3.467,9.867 -4.6,19.067 -3.4,27.6c1.2,8.533 3.267,16.933 6.2,25.2c-28.533,0.8 -52.267,1.667 -71.2,2.6c-18.933,0.933 -36.133,1.267 -51.6,1c-4,-21.333 -6.2,-42.467 -6.6,-63.4c-0.4,-20.933 1.133,-43.133 4.6,-66.6c14.667,0 29.333,1.467 44,4.4c14.667,2.933 28.533,7 41.6,12.2c13.067,5.2 24.267,11.533 33.6,19l8,-8.4c-9.067,-7.2 -18.867,-13.267 -29.4,-18.2c-10.533,-4.933 -21.133,-9.133 -31.8,-12.6c-13.6,-4.8 -25.933,-10.933 -37,-18.4c-11.067,-7.467 -19.8,-16.8 -26.2,-28c-6.4,-11.2 -9.6,-24.533 -9.6,-40c0,-19.2 4.4,-36.6 13.2,-52.2c8.8,-15.6 23.267,-28 43.4,-37.2c20.133,-9.2 47.267,-13.8 81.4,-13.8c33.867,0 59.733,4.733 77.6,14.2c17.867,9.467 27.067,26.867 27.6,52.2c3.733,-10.133 4.933,-19.6 3.6,-28.4c-1.333,-8.8 -3.467,-18.133 -6.4,-28c19.2,-0.267 35.2,-0.6 48,-1c12.8,-0.4 24.133,-0.867 34,-1.4c9.867,-0.533 19.867,-0.8 30,-0.8c4,19.2 6.2,39.933 6.6,62.2c0.4,22.267 -1.133,45 -4.6,68.2c-15.2,-0.267 -28.733,-1.667 -40.6,-4.2c-11.867,-2.533 -22.867,-6.333 -33,-11.4c-10.133,-5.067 -20.533,-11.333 -31.2,-18.8l-7.2,9.2c10.133,7.467 20.533,13.8 31.2,19c10.667,5.2 20.667,9.933 30,14.2c13.867,6.133 25.6,12.933 35.2,20.4c9.6,7.467 17,16.533 22.2,27.2c5.2,10.667 7.8,24 7.8,40c0,22.133 -3.8,39.733 -11.4,52.8c-7.6,13.067 -17.667,22.733 -30.2,29c-12.533,6.267 -26.2,10.333 -41,12.2c-14.8,1.867 -29.533,2.8 -44.2,2.8Z" style="fill:none;"/><path d="M2421.831,3501.897c-2.4,-5.6 -4.267,-12.667 -5.6,-21.2c-1.333,-8.533 -2.133,-17.4 -2.4,-26.6c-0.267,-9.2 0.067,-18.067 1,-26.6c0.933,-8.533 2.333,-15.6 4.2,-21.2c4,-1.6 7.933,-4.333 11.8,-8.2c3.867,-3.867 7.133,-10.133 9.8,-18.8c2.667,-8.667 4,-20.867 4,-36.6c0,-17.067 -1.533,-29.933 -4.6,-38.6c-3.067,-8.667 -6.667,-14.533 -10.8,-17.6c-4.133,-3.067 -7.8,-4.6 -11,-4.6c-2.4,-4.8 -4.133,-11.333 -5.2,-19.6c-1.067,-8.267 -1.533,-17.133 -1.4,-26.6c0.133,-9.467 0.867,-18.667 2.2,-27.6c1.333,-8.933 3.333,-16.6 6,-23c19.733,0.8 37.533,0.933 53.4,0.4c15.867,-0.533 31.733,-1.333 47.6,-2.4c15.867,-1.067 33.2,-2.067 52,-3c18.8,-0.933 41,-1.4 66.6,-1.4c37.6,0 69.667,3.267 96.2,9.8c26.533,6.533 46.867,18.067 61,34.6c14.133,16.533 21.067,40 20.8,70.4c0,15.467 -2.467,29.4 -7.4,41.8c-4.933,12.4 -12.067,22.867 -21.4,31.4c5.333,10.667 11.467,19.2 18.4,25.6c6.933,6.4 13.467,11.067 19.6,14c1.867,5.6 3.133,12.667 3.8,21.2c0.667,8.533 0.933,17.4 0.8,26.6c-0.133,9.2 -0.867,18.067 -2.2,26.6c-1.333,8.533 -3.067,15.6 -5.2,21.2c-5.867,-0.8 -12.467,-1.667 -19.8,-2.6c-7.333,-0.933 -16.067,-1.8 -26.2,-2.6c-10.133,-0.8 -22.667,-1.2 -37.6,-1.2c-20,0 -36.467,0.4 -49.4,1.2c-12.933,0.8 -23.733,1.667 -32.4,2.6c-8.667,0.933 -16.467,1.8 -23.4,2.6c2.933,-21.6 4.333,-40.533 4.2,-56.8c-0.133,-16.267 -2.467,-30.533 -7,-42.8c-4.533,-12.267 -12.267,-23.2 -23.2,-32.8l0,36.8l14.4,0.4c2.4,9.067 3.8,19.533 4.2,31.4c0.4,11.867 0,23.467 -1.2,34.8c-1.2,11.333 -3.133,20.867 -5.8,28.6c-11.2,-1.067 -25.867,-2.4 -44,-4c-18.133,-1.6 -37.867,-2.267 -59.2,-2c-18.667,0.267 -36.533,1.133 -53.6,2.6c-17.067,1.467 -31.067,2.733 -42,3.8Zm185.6,-175.2l24.4,0l0,-27.6l-24.4,0l0,27.6Z"/><path d="M2421.831,3501.897c-2.4,-5.6 -4.267,-12.667 -5.6,-21.2c-1.333,-8.533 -2.133,-17.4 -2.4,-26.6c-0.267,-9.2 0.067,-18.067 1,-26.6c0.933,-8.533 2.333,-15.6 4.2,-21.2c4,-1.6 7.933,-4.333 11.8,-8.2c3.867,-3.867 7.133,-10.133 9.8,-18.8c2.667,-8.667 4,-20.867 4,-36.6c0,-17.067 -1.533,-29.933 -4.6,-38.6c-3.067,-8.667 -6.667,-14.533 -10.8,-17.6c-4.133,-3.067 -7.8,-4.6 -11,-4.6c-2.4,-4.8 -4.133,-11.333 -5.2,-19.6c-1.067,-8.267 -1.533,-17.133 -1.4,-26.6c0.133,-9.467 0.867,-18.667 2.2,-27.6c1.333,-8.933 3.333,-16.6 6,-23c19.733,0.8 37.533,0.933 53.4,0.4c15.867,-0.533 31.733,-1.333 47.6,-2.4c15.867,-1.067 33.2,-2.067 52,-3c18.8,-0.933 41,-1.4 66.6,-1.4c37.6,0 69.667,3.267 96.2,9.8c26.533,6.533 46.867,18.067 61,34.6c14.133,16.533 21.067,40 20.8,70.4c0,15.467 -2.467,29.4 -7.4,41.8c-4.933,12.4 -12.067,22.867 -21.4,31.4c5.333,10.667 11.467,19.2 18.4,25.6c6.933,6.4 13.467,11.067 19.6,14c1.867,5.6 3.133,12.667 3.8,21.2c0.667,8.533 0.933,17.4 0.8,26.6c-0.133,9.2 -0.867,18.067 -2.2,26.6c-1.333,8.533 -3.067,15.6 -5.2,21.2c-5.867,-0.8 -12.467,-1.667 -19.8,-2.6c-7.333,-0.933 -16.067,-1.8 -26.2,-2.6c-10.133,-0.8 -22.667,-1.2 -37.6,-1.2c-20,0 -36.467,0.4 -49.4,1.2c-12.933,0.8 -23.733,1.667 -32.4,2.6c-8.667,0.933 -16.467,1.8 -23.4,2.6c2.933,-21.6 4.333,-40.533 4.2,-56.8c-0.133,-16.267 -2.467,-30.533 -7,-42.8c-4.533,-12.267 -12.267,-23.2 -23.2,-32.8l0,36.8l14.4,0.4c2.4,9.067 3.8,19.533 4.2,31.4c0.4,11.867 0,23.467 -1.2,34.8c-1.2,11.333 -3.133,20.867 -5.8,28.6c-11.2,-1.067 -25.867,-2.4 -44,-4c-18.133,-1.6 -37.867,-2.267 -59.2,-2c-18.667,0.267 -36.533,1.133 -53.6,2.6c-17.067,1.467 -31.067,2.733 -42,3.8Z" style="fill:none;"/><rect x="2607.431" y="3299.097" width="24.4" height="27.6" style="fill:none;"/><path d="M2029.031,3501.897c-2.133,-5.6 -3.867,-12.667 -5.2,-21.2c-1.333,-8.533 -2.067,-17.4 -2.2,-26.6c-0.133,-9.2 0.133,-18.067 0.8,-26.6c0.667,-8.533 1.933,-15.6 3.8,-21.2c4.267,-1.6 8.4,-4.333 12.4,-8.2c4,-3.867 7.333,-10.133 10,-18.8c2.667,-8.667 4,-20.867 4,-36.6c0,-17.067 -1.533,-29.933 -4.6,-38.6c-3.067,-8.667 -6.667,-14.533 -10.8,-17.6c-4.133,-3.067 -7.8,-4.6 -11,-4.6c-2.4,-4.8 -4.133,-11.333 -5.2,-19.6c-1.067,-8.267 -1.533,-17.133 -1.4,-26.6c0.133,-9.467 0.867,-18.667 2.2,-27.6c1.333,-8.933 3.333,-16.6 6,-23c4.267,0.267 11.267,0.6 21,1c9.733,0.4 21.067,0.8 34,1.2c12.933,0.4 26.467,0.733 40.6,1c14.133,0.267 28.067,0.467 41.8,0.6c13.733,0.133 26.067,0.2 37,0.2c28,0 59.133,-0.4 93.4,-1.2c34.267,-0.8 68.333,-1.867 102.2,-3.2c1.333,5.067 2.533,12.4 3.6,22c1.067,9.6 1.867,20.267 2.4,32c0.533,11.733 0.8,23.6 0.8,35.6c0,12 -0.4,23 -1.2,33c-0.8,10 -2,17.8 -3.6,23.4c-12.533,1.6 -26.4,2.667 -41.6,3.2c-15.2,0.533 -30.6,0.533 -46.2,0c-15.6,-0.533 -30.333,-1.6 -44.2,-3.2c-3.2,-12.533 -3.2,-24.933 0,-37.2l-46.4,0l0,16.8l37.2,0l0,55.6l-37.6,0l0,17.2l46.8,0c-3.2,-12.533 -3.2,-25.067 0,-37.6c22.4,-1.333 45.333,-2 68.8,-2c23.467,0 45.333,0.667 65.6,2c0.8,4.8 1.467,12.467 2,23c0.533,10.533 0.8,22.4 0.8,35.6c0,13.2 -0.2,26.467 -0.6,39.8c-0.4,13.333 -1,25.2 -1.8,35.6c-0.8,10.4 -1.867,17.867 -3.2,22.4c-28,-0.533 -58.4,-1.667 -91.2,-3.4c-32.8,-1.733 -64.933,-2.6 -96.4,-2.6c-17.067,0 -35,0.2 -53.8,0.6c-18.8,0.4 -36.933,0.933 -54.4,1.6c-17.467,0.667 -32.8,1.333 -46,2c-13.2,0.667 -22.733,1.267 -28.6,1.8Z"/><path d="M2029.031,3501.897c-2.133,-5.6 -3.867,-12.667 -5.2,-21.2c-1.333,-8.533 -2.067,-17.4 -2.2,-26.6c-0.133,-9.2 0.133,-18.067 0.8,-26.6c0.667,-8.533 1.933,-15.6 3.8,-21.2c4.267,-1.6 8.4,-4.333 12.4,-8.2c4,-3.867 7.333,-10.133 10,-18.8c2.667,-8.667 4,-20.867 4,-36.6c0,-17.067 -1.533,-29.933 -4.6,-38.6c-3.067,-8.667 -6.667,-14.533 -10.8,-17.6c-4.133,-3.067 -7.8,-4.6 -11,-4.6c-2.4,-4.8 -4.133,-11.333 -5.2,-19.6c-1.067,-8.267 -1.533,-17.133 -1.4,-26.6c0.133,-9.467 0.867,-18.667 2.2,-27.6c1.333,-8.933 3.333,-16.6 6,-23c4.267,0.267 11.267,0.6 21,1c9.733,0.4 21.067,0.8 34,1.2c12.933,0.4 26.467,0.733 40.6,1c14.133,0.267 28.067,0.467 41.8,0.6c13.733,0.133 26.067,0.2 37,0.2c28,0 59.133,-0.4 93.4,-1.2c34.267,-0.8 68.333,-1.867 102.2,-3.2c1.333,5.067 2.533,12.4 3.6,22c1.067,9.6 1.867,20.267 2.4,32c0.533,11.733 0.8,23.6 0.8,35.6c0,12 -0.4,23 -1.2,33c-0.8,10 -2,17.8 -3.6,23.4c-12.533,1.6 -26.4,2.667 -41.6,3.2c-15.2,0.533 -30.6,0.533 -46.2,0c-15.6,-0.533 -30.333,-1.6 -44.2,-3.2c-3.2,-12.533 -3.2,-24.933 0,-37.2l-46.4,0l0,16.8l37.2,0l0,55.6l-37.6,0l0,17.2l46.8,0c-3.2,-12.533 -3.2,-25.067 0,-37.6c22.4,-1.333 45.333,-2 68.8,-2c23.467,0 45.333,0.667 65.6,2c0.8,4.8 1.467,12.467 2,23c0.533,10.533 0.8,22.4 0.8,35.6c0,13.2 -0.2,26.467 -0.6,39.8c-0.4,13.333 -1,25.2 -1.8,35.6c-0.8,10.4 -1.867,17.867 -3.2,22.4c-28,-0.533 -58.4,-1.667 -91.2,-3.4c-32.8,-1.733 -64.933,-2.6 -96.4,-2.6c-17.067,0 -35,0.2 -53.8,0.6c-18.8,0.4 -36.933,0.933 -54.4,1.6c-17.467,0.667 -32.8,1.333 -46,2c-13.2,0.667 -22.733,1.267 -28.6,1.8Z" style="fill:none;"/><path d="M1665.031,3501.897c-2.4,-6.4 -4.133,-14 -5.2,-22.8c-1.067,-8.8 -1.733,-17.867 -2,-27.2c-0.267,-9.333 0.067,-18.067 1,-26.2c0.933,-8.133 2.2,-14.6 3.8,-19.4c3.2,-1.067 6.867,-3.267 11,-6.6c4.133,-3.333 7.733,-9.267 10.8,-17.8c3.067,-8.533 4.6,-21.067 4.6,-37.6c0,-16 -1.267,-28.4 -3.8,-37.2c-2.533,-8.8 -5.8,-15.067 -9.8,-18.8c-4,-3.733 -8.267,-5.867 -12.8,-6.4c-2.4,-5.6 -4.133,-12.733 -5.2,-21.4c-1.067,-8.667 -1.533,-17.667 -1.4,-27c0.133,-9.333 0.867,-18.333 2.2,-27c1.333,-8.667 3.333,-15.8 6,-21.4c6.4,0.533 14.667,1.133 24.8,1.8c10.133,0.667 21,1.333 32.6,2c11.6,0.667 22.867,1.2 33.8,1.6c10.933,0.4 20.533,0.6 28.8,0.6c12,0 24.467,-0.333 37.4,-1c12.933,-0.667 24.933,-1.533 36,-2.6c11.067,-1.067 19.933,-1.867 26.6,-2.4c2.4,5.6 4.067,13.067 5,22.4c0.933,9.333 1.267,19.133 1,29.4c-0.267,10.267 -0.933,20.067 -2,29.4c-1.067,9.333 -2.667,16.8 -4.8,22.4c-6.4,0 -11.133,2.467 -14.2,7.4c-3.067,4.933 -5.067,11.4 -6,19.4c-0.933,8 -1.4,16.533 -1.4,25.6l0,41.6l11.6,0c-0.533,-12.533 -0.467,-24.667 0.2,-36.4c0.667,-11.733 1.533,-20.133 2.6,-25.2c12.267,-2.133 26.2,-3.533 41.8,-4.2c15.6,-0.667 31.333,-0.667 47.2,0c15.867,0.667 30.067,2.067 42.6,4.2c1.6,6.933 2.867,16.733 3.8,29.4c0.933,12.667 1.467,26.667 1.6,42c0.133,15.333 0.067,30.4 -0.2,45.2c-0.267,14.8 -0.867,27.933 -1.8,39.4c-0.933,11.467 -2.067,19.733 -3.4,24.8c-26.667,-0.533 -54.467,-1.667 -83.4,-3.4c-28.933,-1.733 -58.467,-2.6 -88.6,-2.6c-14.933,0 -31,0.2 -48.2,0.6c-17.2,0.4 -34.067,0.933 -50.6,1.6c-16.533,0.667 -31.2,1.333 -44,2c-12.8,0.667 -22.133,1.267 -28,1.8Z"/><path d="M1665.031,3501.897c-2.4,-6.4 -4.133,-14 -5.2,-22.8c-1.067,-8.8 -1.733,-17.867 -2,-27.2c-0.267,-9.333 0.067,-18.067 1,-26.2c0.933,-8.133 2.2,-14.6 3.8,-19.4c3.2,-1.067 6.867,-3.267 11,-6.6c4.133,-3.333 7.733,-9.267 10.8,-17.8c3.067,-8.533 4.6,-21.067 4.6,-37.6c0,-16 -1.267,-28.4 -3.8,-37.2c-2.533,-8.8 -5.8,-15.067 -9.8,-18.8c-4,-3.733 -8.267,-5.867 -12.8,-6.4c-2.4,-5.6 -4.133,-12.733 -5.2,-21.4c-1.067,-8.667 -1.533,-17.667 -1.4,-27c0.133,-9.333 0.867,-18.333 2.2,-27c1.333,-8.667 3.333,-15.8 6,-21.4c6.4,0.533 14.667,1.133 24.8,1.8c10.133,0.667 21,1.333 32.6,2c11.6,0.667 22.867,1.2 33.8,1.6c10.933,0.4 20.533,0.6 28.8,0.6c12,0 24.467,-0.333 37.4,-1c12.933,-0.667 24.933,-1.533 36,-2.6c11.067,-1.067 19.933,-1.867 26.6,-2.4c2.4,5.6 4.067,13.067 5,22.4c0.933,9.333 1.267,19.133 1,29.4c-0.267,10.267 -0.933,20.067 -2,29.4c-1.067,9.333 -2.667,16.8 -4.8,22.4c-6.4,0 -11.133,2.467 -14.2,7.4c-3.067,4.933 -5.067,11.4 -6,19.4c-0.933,8 -1.4,16.533 -1.4,25.6l0,41.6l11.6,0c-0.533,-12.533 -0.467,-24.667 0.2,-36.4c0.667,-11.733 1.533,-20.133 2.6,-25.2c12.267,-2.133 26.2,-3.533 41.8,-4.2c15.6,-0.667 31.333,-0.667 47.2,0c15.867,0.667 30.067,2.067 42.6,4.2c1.6,6.933 2.867,16.733 3.8,29.4c0.933,12.667 1.467,26.667 1.6,42c0.133,15.333 0.067,30.4 -0.2,45.2c-0.267,14.8 -0.867,27.933 -1.8,39.4c-0.933,11.467 -2.067,19.733 -3.4,24.8c-26.667,-0.533 -54.467,-1.667 -83.4,-3.4c-28.933,-1.733 -58.467,-2.6 -88.6,-2.6c-14.933,0 -31,0.2 -48.2,0.6c-17.2,0.4 -34.067,0.933 -50.6,1.6c-16.533,0.667 -31.2,1.333 -44,2c-12.8,0.667 -22.133,1.267 -28,1.8Z" style="fill:none;"/><path d="M1301.431,3501.897c-2.4,-6.4 -4.133,-14 -5.2,-22.8c-1.067,-8.8 -1.733,-17.867 -2,-27.2c-0.267,-9.333 0.067,-18.067 1,-26.2c0.933,-8.133 2.2,-14.6 3.8,-19.4c3.2,-1.067 6.867,-3.267 11,-6.6c4.133,-3.333 7.733,-9.267 10.8,-17.8c3.067,-8.533 4.6,-21.067 4.6,-37.6c0,-16 -1.267,-28.4 -3.8,-37.2c-2.533,-8.8 -5.8,-15.067 -9.8,-18.8c-4,-3.733 -8.267,-5.867 -12.8,-6.4c-2.4,-5.6 -4.133,-12.733 -5.2,-21.4c-1.067,-8.667 -1.533,-17.667 -1.4,-27c0.133,-9.333 0.867,-18.333 2.2,-27c1.333,-8.667 3.333,-15.8 6,-21.4c6.4,0.533 14.667,1.133 24.8,1.8c10.133,0.667 21,1.333 32.6,2c11.6,0.667 22.867,1.2 33.8,1.6c10.933,0.4 20.533,0.6 28.8,0.6c12,0 24.467,-0.333 37.4,-1c12.933,-0.667 24.933,-1.533 36,-2.6c11.067,-1.067 19.933,-1.867 26.6,-2.4c2.4,5.6 4.067,13.067 5,22.4c0.933,9.333 1.267,19.133 1,29.4c-0.267,10.267 -0.933,20.067 -2,29.4c-1.067,9.333 -2.667,16.8 -4.8,22.4c-6.4,0 -11.133,2.467 -14.2,7.4c-3.067,4.933 -5.067,11.4 -6,19.4c-0.933,8 -1.4,16.533 -1.4,25.6l0,41.6l11.6,0c-0.533,-12.533 -0.467,-24.667 0.2,-36.4c0.667,-11.733 1.533,-20.133 2.6,-25.2c12.267,-2.133 26.2,-3.533 41.8,-4.2c15.6,-0.667 31.333,-0.667 47.2,0c15.867,0.667 30.067,2.067 42.6,4.2c1.6,6.933 2.867,16.733 3.8,29.4c0.933,12.667 1.467,26.667 1.6,42c0.133,15.333 0.067,30.4 -0.2,45.2c-0.267,14.8 -0.867,27.933 -1.8,39.4c-0.933,11.467 -2.067,19.733 -3.4,24.8c-26.667,-0.533 -54.467,-1.667 -83.4,-3.4c-28.933,-1.733 -58.467,-2.6 -88.6,-2.6c-14.933,0 -31,0.2 -48.2,0.6c-17.2,0.4 -34.067,0.933 -50.6,1.6c-16.533,0.667 -31.2,1.333 -44,2c-12.8,0.667 -22.133,1.267 -28,1.8Z"/><path d="M1301.431,3501.897c-2.4,-6.4 -4.133,-14 -5.2,-22.8c-1.067,-8.8 -1.733,-17.867 -2,-27.2c-0.267,-9.333 0.067,-18.067 1,-26.2c0.933,-8.133 2.2,-14.6 3.8,-19.4c3.2,-1.067 6.867,-3.267 11,-6.6c4.133,-3.333 7.733,-9.267 10.8,-17.8c3.067,-8.533 4.6,-21.067 4.6,-37.6c0,-16 -1.267,-28.4 -3.8,-37.2c-2.533,-8.8 -5.8,-15.067 -9.8,-18.8c-4,-3.733 -8.267,-5.867 -12.8,-6.4c-2.4,-5.6 -4.133,-12.733 -5.2,-21.4c-1.067,-8.667 -1.533,-17.667 -1.4,-27c0.133,-9.333 0.867,-18.333 2.2,-27c1.333,-8.667 3.333,-15.8 6,-21.4c6.4,0.533 14.667,1.133 24.8,1.8c10.133,0.667 21,1.333 32.6,2c11.6,0.667 22.867,1.2 33.8,1.6c10.933,0.4 20.533,0.6 28.8,0.6c12,0 24.467,-0.333 37.4,-1c12.933,-0.667 24.933,-1.533 36,-2.6c11.067,-1.067 19.933,-1.867 26.6,-2.4c2.4,5.6 4.067,13.067 5,22.4c0.933,9.333 1.267,19.133 1,29.4c-0.267,10.267 -0.933,20.067 -2,29.4c-1.067,9.333 -2.667,16.8 -4.8,22.4c-6.4,0 -11.133,2.467 -14.2,7.4c-3.067,4.933 -5.067,11.4 -6,19.4c-0.933,8 -1.4,16.533 -1.4,25.6l0,41.6l11.6,0c-0.533,-12.533 -0.467,-24.667 0.2,-36.4c0.667,-11.733 1.533,-20.133 2.6,-25.2c12.267,-2.133 26.2,-3.533 41.8,-4.2c15.6,-0.667 31.333,-0.667 47.2,0c15.867,0.667 30.067,2.067 42.6,4.2c1.6,6.933 2.867,16.733 3.8,29.4c0.933,12.667 1.467,26.667 1.6,42c0.133,15.333 0.067,30.4 -0.2,45.2c-0.267,14.8 -0.867,27.933 -1.8,39.4c-0.933,11.467 -2.067,19.733 -3.4,24.8c-26.667,-0.533 -54.467,-1.667 -83.4,-3.4c-28.933,-1.733 -58.467,-2.6 -88.6,-2.6c-14.933,0 -31,0.2 -48.2,0.6c-17.2,0.4 -34.067,0.933 -50.6,1.6c-16.533,0.667 -31.2,1.333 -44,2c-12.8,0.667 -22.133,1.267 -28,1.8Z" style="fill:none;"/><path d="M1057.431,3501.897c-2.4,-5.6 -4.267,-12.667 -5.6,-21.2c-1.333,-8.533 -2.133,-17.4 -2.4,-26.6c-0.267,-9.2 0.067,-18.067 1,-26.6c0.933,-8.533 2.333,-15.6 4.2,-21.2c4,-1.6 8.067,-4.333 12.2,-8.2c4.133,-3.867 7.533,-10.133 10.2,-18.8c2.667,-8.667 4,-20.867 4,-36.6c0,-17.067 -1.6,-29.933 -4.8,-38.6c-3.2,-8.667 -6.867,-14.533 -11,-17.6c-4.133,-3.067 -7.667,-4.6 -10.6,-4.6c-2.4,-4.8 -4.267,-11.333 -5.6,-19.6c-1.333,-8.267 -1.933,-17.133 -1.8,-26.6c0.133,-9.467 0.933,-18.667 2.4,-27.6c1.467,-8.933 3.667,-16.6 6.6,-23c8,0.533 18.267,1.333 30.8,2.4c12.533,1.067 25.8,1.933 39.8,2.6c14,0.667 27,1 39,1c13.333,0 27.067,-0.333 41.2,-1c14.133,-0.667 27.467,-1.533 40,-2.6c12.533,-1.067 22.8,-1.867 30.8,-2.4c2.667,6.4 4.667,14.067 6,23c1.333,8.933 2,18.2 2,27.8c0,9.6 -0.533,18.533 -1.6,26.8c-1.067,8.267 -2.8,14.8 -5.2,19.6c-4,0 -8,1.533 -12,4.6c-4,3.067 -7.333,8.867 -10,17.4c-2.667,8.533 -4,21.333 -4,38.4c0,15.733 1.4,27.933 4.2,36.6c2.8,8.667 6.2,14.933 10.2,18.8c4,3.867 8,6.6 12,8.2c2.133,5.6 3.6,12.667 4.4,21.2c0.8,8.533 1.067,17.4 0.8,26.6c-0.267,9.2 -1.067,18.067 -2.4,26.6c-1.333,8.533 -3.2,15.6 -5.6,21.2c-8,-0.8 -18.267,-1.667 -30.8,-2.6c-12.533,-0.933 -25.867,-1.8 -40,-2.6c-14.133,-0.8 -27.867,-1.2 -41.2,-1.2c-12.267,0 -25.133,0.4 -38.6,1.2c-13.467,0.8 -26.267,1.667 -38.4,2.6c-12.133,0.933 -22.2,1.8 -30.2,2.6Z" style="fill:none;"/><path d="M612.231,3501.897c-2.133,-5.6 -3.867,-12.667 -5.2,-21.2c-1.333,-8.533 -2.067,-17.4 -2.2,-26.6c-0.133,-9.2 0.133,-18.067 0.8,-26.6c0.667,-8.533 1.933,-15.6 3.8,-21.2c4.267,-1.6 8.4,-4.333 12.4,-8.2c4,-3.867 7.333,-10.133 10,-18.8c2.667,-8.667 4,-20.867 4,-36.6c0,-17.067 -1.533,-29.933 -4.6,-38.6c-3.067,-8.667 -6.667,-14.533 -10.8,-17.6c-4.133,-3.067 -7.8,-4.6 -11,-4.6c-2.4,-4.8 -4.133,-11.333 -5.2,-19.6c-1.067,-8.267 -1.533,-17.133 -1.4,-26.6c0.133,-9.467 0.867,-18.667 2.2,-27.6c1.333,-8.933 3.333,-16.6 6,-23c7.467,0.533 17.067,1.267 28.8,2.2c11.733,0.933 24.2,1.733 37.4,2.4c13.2,0.667 25.667,1 37.4,1c22.667,0 41.733,-0.667 57.2,-2c15.467,-1.333 28.8,-2.533 40,-3.6c1.6,5.867 2.8,13.467 3.6,22.8c0.8,9.333 1.333,19.067 1.6,29.2c0.267,10.133 0.2,19.8 -0.2,29c-0.4,9.2 -1.133,16.867 -2.2,23l-9.6,0l0,18.4l32,0l0,-18.4l-10,0c-0.8,-6.133 -1.333,-13.8 -1.6,-23c-0.267,-9.2 -0.267,-18.867 0,-29c0.267,-10.133 0.8,-19.867 1.6,-29.2c0.8,-9.333 1.733,-16.933 2.8,-22.8c10.933,1.067 24.733,2.267 41.4,3.6c16.667,1.333 37.133,2 61.4,2c10.667,0 22.333,-0.333 35,-1c12.667,-0.667 24.867,-1.467 36.6,-2.4c11.733,-0.933 21.2,-1.667 28.4,-2.2c2.667,6.4 4.667,14.067 6,23c1.333,8.933 2.067,18.133 2.2,27.6c0.133,9.467 -0.333,18.333 -1.4,26.6c-1.067,8.267 -2.8,14.8 -5.2,19.6c-3.2,0 -6.867,1.533 -11,4.6c-4.133,3.067 -7.733,8.933 -10.8,17.6c-3.067,8.667 -4.6,21.533 -4.6,38.6c0,15.733 1.333,27.933 4,36.6c2.667,8.667 6,14.933 10,18.8c4,3.867 8.133,6.6 12.4,8.2c1.867,5.6 3.133,12.667 3.8,21.2c0.667,8.533 0.933,17.4 0.8,26.6c-0.133,9.2 -0.867,18.067 -2.2,26.6c-1.333,8.533 -3.067,15.6 -5.2,21.2c-10.933,-1.067 -24.2,-2.4 -39.8,-4c-15.6,-1.6 -35.267,-2.4 -59,-2.4c-21.333,0 -41.067,0.8 -59.2,2.4c-18.133,1.6 -32.667,2.933 -43.6,4c-1.067,-5.6 -2,-12.867 -2.8,-21.8c-0.8,-8.933 -1.333,-18.267 -1.6,-28c-0.267,-9.733 -0.267,-19.067 0,-28c0.267,-8.933 0.8,-16.2 1.6,-21.8l10,0l0,-20.4l-32,0l0,20.4l9.6,0c1.067,5.6 1.8,12.867 2.2,21.8c0.4,8.933 0.467,18.267 0.2,28c-0.267,9.733 -0.8,19.067 -1.6,28c-0.8,8.933 -2,16.2 -3.6,21.8c-7.467,-0.8 -15.267,-1.667 -23.4,-2.6c-8.133,-0.933 -18.067,-1.8 -29.8,-2.6c-11.733,-0.8 -26.533,-1.2 -44.4,-1.2c-21.6,0 -41.067,0.733 -58.4,2.2c-17.333,1.467 -31.867,2.867 -43.6,4.2Z"/><path d="M612.231,3501.897c-2.133,-5.6 -3.867,-12.667 -5.2,-21.2c-1.333,-8.533 -2.067,-17.4 -2.2,-26.6c-0.133,-9.2 0.133,-18.067 0.8,-26.6c0.667,-8.533 1.933,-15.6 3.8,-21.2c4.267,-1.6 8.4,-4.333 12.4,-8.2c4,-3.867 7.333,-10.133 10,-18.8c2.667,-8.667 4,-20.867 4,-36.6c0,-17.067 -1.533,-29.933 -4.6,-38.6c-3.067,-8.667 -6.667,-14.533 -10.8,-17.6c-4.133,-3.067 -7.8,-4.6 -11,-4.6c-2.4,-4.8 -4.133,-11.333 -5.2,-19.6c-1.067,-8.267 -1.533,-17.133 -1.4,-26.6c0.133,-9.467 0.867,-18.667 2.2,-27.6c1.333,-8.933 3.333,-16.6 6,-23c7.467,0.533 17.067,1.267 28.8,2.2c11.733,0.933 24.2,1.733 37.4,2.4c13.2,0.667 25.667,1 37.4,1c22.667,0 41.733,-0.667 57.2,-2c15.467,-1.333 28.8,-2.533 40,-3.6c1.6,5.867 2.8,13.467 3.6,22.8c0.8,9.333 1.333,19.067 1.6,29.2c0.267,10.133 0.2,19.8 -0.2,29c-0.4,9.2 -1.133,16.867 -2.2,23l-9.6,0l0,18.4l32,0l0,-18.4l-10,0c-0.8,-6.133 -1.333,-13.8 -1.6,-23c-0.267,-9.2 -0.267,-18.867 0,-29c0.267,-10.133 0.8,-19.867 1.6,-29.2c0.8,-9.333 1.733,-16.933 2.8,-22.8c10.933,1.067 24.733,2.267 41.4,3.6c16.667,1.333 37.133,2 61.4,2c10.667,0 22.333,-0.333 35,-1c12.667,-0.667 24.867,-1.467 36.6,-2.4c11.733,-0.933 21.2,-1.667 28.4,-2.2c2.667,6.4 4.667,14.067 6,23c1.333,8.933 2.067,18.133 2.2,27.6c0.133,9.467 -0.333,18.333 -1.4,26.6c-1.067,8.267 -2.8,14.8 -5.2,19.6c-3.2,0 -6.867,1.533 -11,4.6c-4.133,3.067 -7.733,8.933 -10.8,17.6c-3.067,8.667 -4.6,21.533 -4.6,38.6c0,15.733 1.333,27.933 4,36.6c2.667,8.667 6,14.933 10,18.8c4,3.867 8.133,6.6 12.4,8.2c1.867,5.6 3.133,12.667 3.8,21.2c0.667,8.533 0.933,17.4 0.8,26.6c-0.133,9.2 -0.867,18.067 -2.2,26.6c-1.333,8.533 -3.067,15.6 -5.2,21.2c-10.933,-1.067 -24.2,-2.4 -39.8,-4c-15.6,-1.6 -35.267,-2.4 -59,-2.4c-21.333,0 -41.067,0.8 -59.2,2.4c-18.133,1.6 -32.667,2.933 -43.6,4c-1.067,-5.6 -2,-12.867 -2.8,-21.8c-0.8,-8.933 -1.333,-18.267 -1.6,-28c-0.267,-9.733 -0.267,-19.067 0,-28c0.267,-8.933 0.8,-16.2 1.6,-21.8l10,0l0,-20.4l-32,0l0,20.4l9.6,0c1.067,5.6 1.8,12.867 2.2,21.8c0.4,8.933 0.467,18.267 0.2,28c-0.267,9.733 -0.8,19.067 -1.6,28c-0.8,8.933 -2,16.2 -3.6,21.8c-7.467,-0.8 -15.267,-1.667 -23.4,-2.6c-8.133,-0.933 -18.067,-1.8 -29.8,-2.6c-11.733,-0.8 -26.533,-1.2 -44.4,-1.2c-21.6,0 -41.067,0.733 -58.4,2.2c-17.333,1.467 -31.867,2.867 -43.6,4.2Z" style="fill:none;"/><path d="M404.631,3509.097c-48.8,0 -88.267,-7.067 -118.4,-21.2c-30.133,-14.133 -52.067,-33.933 -65.8,-59.4c-13.733,-25.467 -20.6,-55 -20.6,-88.6c0,-34.4 6.667,-63.733 20,-88c13.333,-24.267 31.8,-42.8 55.4,-55.6c23.6,-12.8 50.733,-19.2 81.4,-19.2c21.067,0 39.067,2.133 54,6.4c14.933,4.267 26.467,11.6 34.6,22c8.133,10.4 12.333,24.8 12.6,43.2c3.733,-10.133 5.133,-20.467 4.2,-31c-0.933,-10.533 -1.933,-21.133 -3,-31.8c12.8,-0.267 27.333,-0.6 43.6,-1c16.267,-0.4 32.133,-0.867 47.6,-1.4c15.467,-0.533 28.533,-0.8 39.2,-0.8c1.867,8.267 3.333,18.6 4.4,31c1.067,12.4 1.667,25.667 1.8,39.8c0.133,14.133 -0.2,28 -1,41.6c-0.8,13.6 -2.133,25.733 -4,36.4c-8.267,1.333 -18.667,2.4 -31.2,3.2c-12.533,0.8 -26.067,1.267 -40.6,1.4c-14.533,0.133 -28.933,0.133 -43.2,0c-14.267,-0.133 -27.4,-0.6 -39.4,-1.4c-12,-0.8 -21.867,-1.867 -29.6,-3.2l-0.4,-16.4l-21.2,0l0,51.6l21.2,0l0,-18.8c30.933,-1.6 61.4,-2.4 91.4,-2.4c30,0 61.933,0.8 95.8,2.4c-1.333,36.533 -8.6,66.733 -21.8,90.6c-13.2,23.867 -33.4,41.6 -60.6,53.2c-27.2,11.6 -62.667,17.4 -106.4,17.4Z"/><path d="M404.631,3509.097c-48.8,0 -88.267,-7.067 -118.4,-21.2c-30.133,-14.133 -52.067,-33.933 -65.8,-59.4c-13.733,-25.467 -20.6,-55 -20.6,-88.6c0,-34.4 6.667,-63.733 20,-88c13.333,-24.267 31.8,-42.8 55.4,-55.6c23.6,-12.8 50.733,-19.2 81.4,-19.2c21.067,0 39.067,2.133 54,6.4c14.933,4.267 26.467,11.6 34.6,22c8.133,10.4 12.333,24.8 12.6,43.2c3.733,-10.133 5.133,-20.467 4.2,-31c-0.933,-10.533 -1.933,-21.133 -3,-31.8c12.8,-0.267 27.333,-0.6 43.6,-1c16.267,-0.4 32.133,-0.867 47.6,-1.4c15.467,-0.533 28.533,-0.8 39.2,-0.8c1.867,8.267 3.333,18.6 4.4,31c1.067,12.4 1.667,25.667 1.8,39.8c0.133,14.133 -0.2,28 -1,41.6c-0.8,13.6 -2.133,25.733 -4,36.4c-8.267,1.333 -18.667,2.4 -31.2,3.2c-12.533,0.8 -26.067,1.267 -40.6,1.4c-14.533,0.133 -28.933,0.133 -43.2,0c-14.267,-0.133 -27.4,-0.6 -39.4,-1.4c-12,-0.8 -21.867,-1.867 -29.6,-3.2l-0.4,-16.4l-21.2,0l0,51.6l21.2,0l0,-18.8c30.933,-1.6 61.4,-2.4 91.4,-2.4c30,0 61.933,0.8 95.8,2.4c-1.333,36.533 -8.6,66.733 -21.8,90.6c-13.2,23.867 -33.4,41.6 -60.6,53.2c-27.2,11.6 -62.667,17.4 -106.4,17.4Z" style="fill:none;"/><g><path d="M794.761,3743.668c20.996,-4.714 157.455,-9.123 212.374,-57.765c165.51,-146.594 139.134,-133.54 195.225,-232.484c1.739,-3.068 16.198,-49.418 19.95,-56.153c3.452,-6.194 7.825,-17.121 13.247,-38.636c7.865,-31.203 8.495,-36.473 22.954,-138.332c6.729,-47.404 2.831,-73.597 -16.035,-142.741c-4.827,-17.69 -0.892,-25.883 -27.329,-47.743c-8.693,-7.188 -32.178,-10.468 -32.178,-10.468c-6.97,3.92 0,0 0,0c-28.877,20.127 -63.739,25.887 -63.739,25.887c0,0 -22.245,5.252 -25.113,43.263c-1.03,13.651 2.675,46.086 2.675,46.086l8.936,43.906l8.2,46.638l5.069,46.976l2.581,41.542l-5.922,68.439l-19.125,63.527c0,0 12.222,-27.414 -19.494,48.359c-7.478,17.866 -32.666,55.483 -32.666,55.483l-31.53,48.391l-37.978,41.483c0,0 -49.835,47.092 -65.304,58.371c-2.041,1.488 -4.429,3.054 -6.938,4.605c-4.62,2.856 -13.68,7.825 -13.68,7.825c0,0 -4.99,3.181 -7.78,4.059c-49.47,15.571 -107.396,34.195 -86.4,29.48Z" style="fill:#d80000;stroke:#170200;stroke-width:12.5px;"/><path d="M1039.551,2817.299c8.004,2.727 29.395,22.71 39.825,34.355c9.38,10.474 17.668,25.611 22.75,35.518c3.826,7.457 5.617,16.118 7.742,23.923c2.053,7.541 3.859,15.213 5.006,22.905c1.146,7.688 -0.7,16.022 1.874,23.243c2.574,7.22 7.878,14.349 13.572,20.079c8.202,8.254 26.839,23.473 35.639,29.444c5.051,3.428 17.008,2.763 17.164,6.385c0.155,3.623 -10.344,10.971 -16.232,15.351c-5.885,4.378 -12.58,8.596 -19.097,10.932c-6.351,2.276 -13.495,1.743 -20.005,3.079c-6.426,1.319 -17.758,9.175 -19.05,4.937c-1.292,-4.238 12.74,-19.663 11.297,-30.367c-1.466,-10.874 -16.626,-23.317 -20.091,-34.877c-3.301,-11.012 1.187,-23.141 -0.699,-34.482c-2.476,-14.891 -7.934,-39.275 -14.157,-54.867c-5.573,-13.962 -14.228,-29.091 -23.183,-38.685c-8.169,-8.751 -26.826,-12.735 -30.551,-18.881c-3.417,-5.636 1.958,-20.118 8.197,-17.993Z" style="fill:#00e500;stroke:#170200;stroke-width:12.5px;"/></g><g><path d="M1203.874,1717.501c13.246,21.022 70.8,167.796 144.959,208.746c223.492,123.413 199.092,99.76 328.435,122.538c4.01,0.706 60.033,-1.481 68.811,-0.002c8.074,1.361 21.654,1.895 47.16,-0.523c36.992,-3.506 42.969,-4.857 159.39,-28.505c54.181,-11.005 81.173,-25.373 149.113,-72.632c17.382,-12.091 27.818,-10.977 41.382,-48.194c4.46,-12.237 -1.05,-39.059 -1.05,-39.059c-6.96,-6.068 0,0 0,0c-33.063,-23.639 -52.809,-59.345 -52.809,-59.345c0,0 -14.314,-22.173 -56.782,-10.599c-15.252,4.157 -49.111,20.728 -49.111,20.728l-44.318,26.697l-47.576,26.954l-49.154,23.677l-44.203,18.869l-76.756,20.015l-76.516,3.751c0,0 34.553,2.7 -60.155,-2.515c-22.33,-1.23 -72.999,-14.092 -72.999,-14.092l-64.842,-15.599l-59.819,-25.285c0,0 -70.506,-36.017 -88.759,-48.488c-2.408,-1.645 -5.036,-3.638 -7.693,-5.769c-4.893,-3.923 -13.802,-11.86 -13.802,-11.86c0,0 -5.391,-4.2 -7.425,-6.896c-36.068,-47.808 -78.726,-103.635 -65.48,-82.612Z" style="fill:#d80000;stroke:#170200;stroke-width:12.5px;"/><path d="M2306.469,1625.707c0.127,9.763 -13.345,40.764 -21.984,56.614c-7.77,14.255 -21.036,29.126 -29.851,38.485c-6.635,7.046 -15.366,12.343 -23.036,17.673c-7.411,5.149 -15.061,10.081 -22.987,14.302c-7.922,4.219 -17.704,5.432 -24.565,11.025c-6.861,5.593 -12.567,14.119 -16.601,22.53c-5.81,12.115 -15.164,38.278 -18.259,50.162c-1.777,6.821 3.57,19.575 -0.312,21.144c-3.882,1.57 -15.936,-7.014 -22.979,-11.727c-7.039,-4.711 -14.217,-10.365 -19.277,-16.553c-4.932,-6.031 -7.114,-14.01 -11.084,-20.576c-3.919,-6.482 -16.849,-15.775 -12.737,-18.819c4.112,-3.045 26.321,6.26 37.409,0.552c11.265,-5.799 18.943,-27.105 30.181,-35.344c10.706,-7.849 25.638,-7.655 37.248,-14.091c15.246,-8.451 39.666,-23.817 54.226,-36.616c13.037,-11.462 26.153,-26.728 33.13,-40.181c6.364,-12.272 3.486,-34.112 8.733,-40.542c4.811,-5.896 22.647,-5.647 22.746,1.963Z" style="fill:#00e500;stroke:#170200;stroke-width:12.5px;"/></g><path d="M2354.816,2299.6c-16.533,0 -28.846,-2.943 -36.938,-8.829c-8.092,-5.886 -12.255,-16.337 -12.487,-31.351c-1.514,6.313 -2.008,12.199 -1.485,17.659c0.524,5.46 1.426,10.834 2.707,16.123c-12.458,0.512 -22.821,1.066 -31.087,1.664c-8.267,0.597 -15.777,0.81 -22.53,0.64c-1.746,-13.649 -2.707,-27.171 -2.882,-40.565c-0.175,-13.394 0.495,-27.598 2.008,-42.612c6.404,0 12.808,0.938 19.211,2.815c6.404,1.877 12.458,4.479 18.163,7.806c5.705,3.327 10.595,7.379 14.67,12.157l3.493,-5.374c-3.959,-4.607 -8.238,-8.488 -12.837,-11.645c-4.599,-3.156 -9.227,-5.844 -13.885,-8.062c-5.938,-3.071 -11.323,-6.995 -16.155,-11.773c-4.832,-4.777 -8.645,-10.749 -11.439,-17.915c-2.794,-7.166 -4.192,-15.697 -4.192,-25.593c0,-12.285 1.921,-23.417 5.763,-33.399c3.842,-9.981 10.159,-17.915 18.949,-23.801c8.791,-5.886 20.638,-8.829 35.541,-8.829c14.787,0 26.081,3.028 33.882,9.085c7.801,6.057 11.818,17.19 12.051,33.399c1.63,-6.483 2.154,-12.54 1.572,-18.171c-0.582,-5.63 -1.514,-11.602 -2.794,-17.915c8.383,-0.171 15.369,-0.384 20.958,-0.64c5.589,-0.256 10.537,-0.555 14.845,-0.896c4.308,-0.341 8.674,-0.512 13.099,-0.512c1.746,12.285 2.707,25.55 2.882,39.797c0.175,14.247 -0.495,28.792 -2.008,43.636c-6.637,-0.171 -12.546,-1.066 -17.727,-2.687c-5.181,-1.621 -9.984,-4.052 -14.409,-7.294c-4.424,-3.242 -8.965,-7.251 -13.623,-12.029l-3.144,5.886c4.424,4.777 8.965,8.829 13.623,12.157c4.657,3.327 9.024,6.356 13.099,9.085c6.054,3.924 11.178,8.275 15.369,13.052c4.192,4.777 7.423,10.578 9.693,17.403c2.27,6.825 3.406,15.356 3.406,25.593c0,14.161 -1.659,25.422 -4.977,33.782c-3.318,8.36 -7.714,14.545 -13.186,18.555c-5.472,4.01 -11.439,6.611 -17.902,7.806c-6.462,1.194 -12.895,1.791 -19.299,1.791Z"/><path d="M2354.816,2299.6c-16.533,0 -28.846,-2.943 -36.938,-8.829c-8.092,-5.886 -12.255,-16.337 -12.487,-31.351c-1.514,6.313 -2.008,12.199 -1.485,17.659c0.524,5.46 1.426,10.834 2.707,16.123c-12.458,0.512 -22.821,1.066 -31.087,1.664c-8.267,0.597 -15.777,0.81 -22.53,0.64c-1.746,-13.649 -2.707,-27.171 -2.882,-40.565c-0.175,-13.394 0.495,-27.598 2.008,-42.612c6.404,0 12.808,0.938 19.211,2.815c6.404,1.877 12.458,4.479 18.163,7.806c5.705,3.327 10.595,7.379 14.67,12.157l3.493,-5.374c-3.959,-4.607 -8.238,-8.488 -12.837,-11.645c-4.599,-3.156 -9.227,-5.844 -13.885,-8.062c-5.938,-3.071 -11.323,-6.995 -16.155,-11.773c-4.832,-4.777 -8.645,-10.749 -11.439,-17.915c-2.794,-7.166 -4.192,-15.697 -4.192,-25.593c0,-12.285 1.921,-23.417 5.763,-33.399c3.842,-9.981 10.159,-17.915 18.949,-23.801c8.791,-5.886 20.638,-8.829 35.541,-8.829c14.787,0 26.081,3.028 33.882,9.085c7.801,6.057 11.818,17.19 12.051,33.399c1.63,-6.483 2.154,-12.54 1.572,-18.171c-0.582,-5.63 -1.514,-11.602 -2.794,-17.915c8.383,-0.171 15.369,-0.384 20.958,-0.64c5.589,-0.256 10.537,-0.555 14.845,-0.896c4.308,-0.341 8.674,-0.512 13.099,-0.512c1.746,12.285 2.707,25.55 2.882,39.797c0.175,14.247 -0.495,28.792 -2.008,43.636c-6.637,-0.171 -12.546,-1.066 -17.727,-2.687c-5.181,-1.621 -9.984,-4.052 -14.409,-7.294c-4.424,-3.242 -8.965,-7.251 -13.623,-12.029l-3.144,5.886c4.424,4.777 8.965,8.829 13.623,12.157c4.657,3.327 9.024,6.356 13.099,9.085c6.054,3.924 11.178,8.275 15.369,13.052c4.192,4.777 7.423,10.578 9.693,17.403c2.27,6.825 3.406,15.356 3.406,25.593c0,14.161 -1.659,25.422 -4.977,33.782c-3.318,8.36 -7.714,14.545 -13.186,18.555c-5.472,4.01 -11.439,6.611 -17.902,7.806c-6.462,1.194 -12.895,1.791 -19.299,1.791Z" style="fill:none;"/><path d="M2067.868,2295.761c-1.048,-3.583 -1.863,-8.104 -2.445,-13.564c-0.582,-5.46 -0.931,-11.133 -1.048,-17.019c-0.116,-5.886 0.029,-11.559 0.437,-17.019c0.408,-5.46 1.019,-9.981 1.834,-13.564c1.746,-1.024 3.464,-2.773 5.152,-5.247c1.688,-2.474 3.115,-6.483 4.279,-12.029c1.164,-5.545 1.746,-13.351 1.746,-23.417c0,-10.92 -0.669,-19.152 -2.008,-24.697c-1.339,-5.545 -2.911,-9.299 -4.716,-11.261c-1.805,-1.962 -3.406,-2.943 -4.803,-2.943c-1.048,-3.071 -1.805,-7.251 -2.27,-12.54c-0.466,-5.289 -0.669,-10.962 -0.611,-17.019c0.058,-6.057 0.378,-11.943 0.961,-17.659c0.582,-5.716 1.455,-10.621 2.62,-14.716c8.616,0.512 16.388,0.597 23.316,0.256c6.928,-0.341 13.855,-0.853 20.783,-1.536c6.928,-0.682 14.496,-1.322 22.704,-1.919c8.208,-0.597 17.902,-0.896 29.079,-0.896c16.417,0 30.418,2.09 42.003,6.27c11.585,4.18 20.463,11.559 26.634,22.138c6.171,10.578 9.198,25.593 9.082,45.043c0,9.896 -1.077,18.811 -3.231,26.744c-2.154,7.934 -5.269,14.631 -9.344,20.09c2.329,6.825 5.007,12.285 8.034,16.379c3.027,4.095 5.88,7.081 8.558,8.957c0.815,3.583 1.368,8.104 1.659,13.564c0.291,5.46 0.408,11.133 0.349,17.019c-0.058,5.886 -0.378,11.559 -0.961,17.019c-0.582,5.46 -1.339,9.981 -2.27,13.564c-2.562,-0.512 -5.443,-1.066 -8.645,-1.664c-3.202,-0.597 -7.015,-1.152 -11.439,-1.664c-4.424,-0.512 -9.897,-0.768 -16.417,-0.768c-8.732,0 -15.922,0.256 -21.569,0.768c-5.647,0.512 -10.362,1.066 -14.147,1.664c-3.784,0.597 -7.19,1.152 -10.217,1.664c1.281,-13.82 1.892,-25.934 1.834,-36.342c-0.058,-10.408 -1.077,-19.536 -3.056,-27.384c-1.979,-7.848 -5.356,-14.844 -10.13,-20.986l0,23.545l6.287,0.256c1.048,5.801 1.659,12.498 1.834,20.09c0.175,7.593 0,15.014 -0.524,22.266c-0.524,7.251 -1.368,13.351 -2.532,18.299c-4.89,-0.682 -11.294,-1.536 -19.211,-2.559c-7.917,-1.024 -16.533,-1.45 -25.848,-1.28c-8.15,0.171 -15.951,0.725 -23.403,1.664c-7.452,0.938 -13.564,1.749 -18.338,2.431Zm81.037,-112.096l10.654,0l0,-17.659l-10.654,0l0,17.659Z"/><path d="M2067.868,2295.761c-1.048,-3.583 -1.863,-8.104 -2.445,-13.564c-0.582,-5.46 -0.931,-11.133 -1.048,-17.019c-0.116,-5.886 0.029,-11.559 0.437,-17.019c0.408,-5.46 1.019,-9.981 1.834,-13.564c1.746,-1.024 3.464,-2.773 5.152,-5.247c1.688,-2.474 3.115,-6.483 4.279,-12.029c1.164,-5.545 1.746,-13.351 1.746,-23.417c0,-10.92 -0.669,-19.152 -2.008,-24.697c-1.339,-5.545 -2.911,-9.299 -4.716,-11.261c-1.805,-1.962 -3.406,-2.943 -4.803,-2.943c-1.048,-3.071 -1.805,-7.251 -2.27,-12.54c-0.466,-5.289 -0.669,-10.962 -0.611,-17.019c0.058,-6.057 0.378,-11.943 0.961,-17.659c0.582,-5.716 1.455,-10.621 2.62,-14.716c8.616,0.512 16.388,0.597 23.316,0.256c6.928,-0.341 13.855,-0.853 20.783,-1.536c6.928,-0.682 14.496,-1.322 22.704,-1.919c8.208,-0.597 17.902,-0.896 29.079,-0.896c16.417,0 30.418,2.09 42.003,6.27c11.585,4.18 20.463,11.559 26.634,22.138c6.171,10.578 9.198,25.593 9.082,45.043c0,9.896 -1.077,18.811 -3.231,26.744c-2.154,7.934 -5.269,14.631 -9.344,20.09c2.329,6.825 5.007,12.285 8.034,16.379c3.027,4.095 5.88,7.081 8.558,8.957c0.815,3.583 1.368,8.104 1.659,13.564c0.291,5.46 0.408,11.133 0.349,17.019c-0.058,5.886 -0.378,11.559 -0.961,17.019c-0.582,5.46 -1.339,9.981 -2.27,13.564c-2.562,-0.512 -5.443,-1.066 -8.645,-1.664c-3.202,-0.597 -7.015,-1.152 -11.439,-1.664c-4.424,-0.512 -9.897,-0.768 -16.417,-0.768c-8.732,0 -15.922,0.256 -21.569,0.768c-5.647,0.512 -10.362,1.066 -14.147,1.664c-3.784,0.597 -7.19,1.152 -10.217,1.664c1.281,-13.82 1.892,-25.934 1.834,-36.342c-0.058,-10.408 -1.077,-19.536 -3.056,-27.384c-1.979,-7.848 -5.356,-14.844 -10.13,-20.986l0,23.545l6.287,0.256c1.048,5.801 1.659,12.498 1.834,20.09c0.175,7.593 0,15.014 -0.524,22.266c-0.524,7.251 -1.368,13.351 -2.532,18.299c-4.89,-0.682 -11.294,-1.536 -19.211,-2.559c-7.917,-1.024 -16.533,-1.45 -25.848,-1.28c-8.15,0.171 -15.951,0.725 -23.403,1.664c-7.452,0.938 -13.564,1.749 -18.338,2.431Z" style="fill:none;"/><rect x="2148.905" y="2166.005" width="10.654" height="17.659" style="fill:none;"/><path d="M1896.363,2295.761c-0.931,-3.583 -1.688,-8.104 -2.27,-13.564c-0.582,-5.46 -0.902,-11.133 -0.961,-17.019c-0.058,-5.886 0.058,-11.559 0.349,-17.019c0.291,-5.46 0.844,-9.981 1.659,-13.564c1.863,-1.024 3.668,-2.773 5.414,-5.247c1.746,-2.474 3.202,-6.483 4.366,-12.029c1.164,-5.545 1.746,-13.351 1.746,-23.417c0,-10.92 -0.669,-19.152 -2.008,-24.697c-1.339,-5.545 -2.911,-9.299 -4.716,-11.261c-1.805,-1.962 -3.406,-2.943 -4.803,-2.943c-1.048,-3.071 -1.805,-7.251 -2.27,-12.54c-0.466,-5.289 -0.669,-10.962 -0.611,-17.019c0.058,-6.057 0.378,-11.943 0.961,-17.659c0.582,-5.716 1.455,-10.621 2.62,-14.716c1.863,0.171 4.919,0.384 9.169,0.64c4.25,0.256 9.198,0.512 14.845,0.768c5.647,0.256 11.556,0.469 17.727,0.64c6.171,0.171 12.255,0.299 18.251,0.384c5.996,0.085 11.381,0.128 16.155,0.128c12.225,0 25.819,-0.256 40.78,-0.768c14.962,-0.512 29.836,-1.194 44.623,-2.047c0.582,3.242 1.106,7.934 1.572,14.076c0.466,6.142 0.815,12.967 1.048,20.474c0.233,7.507 0.349,15.1 0.349,22.778c0,7.678 -0.175,14.716 -0.524,21.114c-0.349,6.398 -0.873,11.389 -1.572,14.972c-5.472,1.024 -11.527,1.706 -18.163,2.047c-6.637,0.341 -13.361,0.341 -20.172,0c-6.811,-0.341 -13.244,-1.024 -19.299,-2.047c-1.397,-8.019 -1.397,-15.953 0,-23.801l-20.259,0l0,10.749l16.242,0l0,35.574l-16.417,0l0,11.005l20.434,0c-1.397,-8.019 -1.397,-16.038 0,-24.057c9.78,-0.853 19.794,-1.28 30.04,-1.28c10.246,0 19.794,0.427 28.642,1.28c0.349,3.071 0.64,7.976 0.873,14.716c0.233,6.739 0.349,14.332 0.349,22.778c0,8.446 -0.087,16.934 -0.262,25.465c-0.175,8.531 -0.437,16.123 -0.786,22.778c-0.349,6.654 -0.815,11.431 -1.397,14.332c-12.225,-0.341 -25.499,-1.066 -39.82,-2.175c-14.321,-1.109 -28.351,-1.664 -42.09,-1.664c-7.452,0 -15.282,0.128 -23.49,0.384c-8.208,0.256 -16.126,0.597 -23.752,1.024c-7.626,0.427 -14.321,0.853 -20.085,1.28c-5.763,0.427 -9.926,0.81 -12.487,1.152Z"/><path d="M1896.363,2295.761c-0.931,-3.583 -1.688,-8.104 -2.27,-13.564c-0.582,-5.46 -0.902,-11.133 -0.961,-17.019c-0.058,-5.886 0.058,-11.559 0.349,-17.019c0.291,-5.46 0.844,-9.981 1.659,-13.564c1.863,-1.024 3.668,-2.773 5.414,-5.247c1.746,-2.474 3.202,-6.483 4.366,-12.029c1.164,-5.545 1.746,-13.351 1.746,-23.417c0,-10.92 -0.669,-19.152 -2.008,-24.697c-1.339,-5.545 -2.911,-9.299 -4.716,-11.261c-1.805,-1.962 -3.406,-2.943 -4.803,-2.943c-1.048,-3.071 -1.805,-7.251 -2.27,-12.54c-0.466,-5.289 -0.669,-10.962 -0.611,-17.019c0.058,-6.057 0.378,-11.943 0.961,-17.659c0.582,-5.716 1.455,-10.621 2.62,-14.716c1.863,0.171 4.919,0.384 9.169,0.64c4.25,0.256 9.198,0.512 14.845,0.768c5.647,0.256 11.556,0.469 17.727,0.64c6.171,0.171 12.255,0.299 18.251,0.384c5.996,0.085 11.381,0.128 16.155,0.128c12.225,0 25.819,-0.256 40.78,-0.768c14.962,-0.512 29.836,-1.194 44.623,-2.047c0.582,3.242 1.106,7.934 1.572,14.076c0.466,6.142 0.815,12.967 1.048,20.474c0.233,7.507 0.349,15.1 0.349,22.778c0,7.678 -0.175,14.716 -0.524,21.114c-0.349,6.398 -0.873,11.389 -1.572,14.972c-5.472,1.024 -11.527,1.706 -18.163,2.047c-6.637,0.341 -13.361,0.341 -20.172,0c-6.811,-0.341 -13.244,-1.024 -19.299,-2.047c-1.397,-8.019 -1.397,-15.953 0,-23.801l-20.259,0l0,10.749l16.242,0l0,35.574l-16.417,0l0,11.005l20.434,0c-1.397,-8.019 -1.397,-16.038 0,-24.057c9.78,-0.853 19.794,-1.28 30.04,-1.28c10.246,0 19.794,0.427 28.642,1.28c0.349,3.071 0.64,7.976 0.873,14.716c0.233,6.739 0.349,14.332 0.349,22.778c0,8.446 -0.087,16.934 -0.262,25.465c-0.175,8.531 -0.437,16.123 -0.786,22.778c-0.349,6.654 -0.815,11.431 -1.397,14.332c-12.225,-0.341 -25.499,-1.066 -39.82,-2.175c-14.321,-1.109 -28.351,-1.664 -42.09,-1.664c-7.452,0 -15.282,0.128 -23.49,0.384c-8.208,0.256 -16.126,0.597 -23.752,1.024c-7.626,0.427 -14.321,0.853 -20.085,1.28c-5.763,0.427 -9.926,0.81 -12.487,1.152Z" style="fill:none;"/><path d="M1737.433,2295.761c-1.048,-4.095 -1.805,-8.957 -2.27,-14.588c-0.466,-5.63 -0.757,-11.431 -0.873,-17.403c-0.116,-5.972 0.029,-11.559 0.437,-16.763c0.408,-5.204 0.961,-9.341 1.659,-12.412c1.397,-0.682 2.998,-2.09 4.803,-4.223c1.805,-2.133 3.377,-5.929 4.716,-11.389c1.339,-5.46 2.008,-13.479 2.008,-24.057c0,-10.237 -0.553,-18.171 -1.659,-23.801c-1.106,-5.63 -2.532,-9.64 -4.279,-12.029c-1.746,-2.389 -3.609,-3.754 -5.589,-4.095c-1.048,-3.583 -1.805,-8.147 -2.27,-13.692c-0.466,-5.545 -0.669,-11.303 -0.611,-17.275c0.058,-5.972 0.378,-11.73 0.961,-17.275c0.582,-5.545 1.455,-10.109 2.62,-13.692c2.794,0.341 6.404,0.725 10.828,1.152c4.424,0.427 9.169,0.853 14.234,1.28c5.065,0.427 9.984,0.768 14.758,1.024c4.774,0.256 8.965,0.384 12.575,0.384c5.239,0 10.683,-0.213 16.33,-0.64c5.647,-0.427 10.886,-0.981 15.718,-1.664c4.832,-0.682 8.703,-1.194 11.614,-1.536c1.048,3.583 1.776,8.36 2.183,14.332c0.408,5.972 0.553,12.242 0.437,18.811c-0.116,6.569 -0.408,12.839 -0.873,18.811c-0.466,5.972 -1.164,10.749 -2.096,14.332c-2.794,0 -4.861,1.578 -6.2,4.735c-1.339,3.156 -2.212,7.294 -2.62,12.412c-0.408,5.119 -0.611,10.578 -0.611,16.379l0,26.616l5.065,0c-0.233,-8.019 -0.204,-15.782 0.087,-23.289c0.291,-7.507 0.669,-12.882 1.135,-16.123c5.356,-1.365 11.439,-2.261 18.251,-2.687c6.811,-0.427 13.681,-0.427 20.609,0c6.928,0.427 13.128,1.322 18.6,2.687c0.699,4.436 1.252,10.706 1.659,18.811c0.408,8.104 0.64,17.062 0.699,26.872c0.058,9.811 0.029,19.45 -0.087,28.92c-0.116,9.469 -0.378,17.872 -0.786,25.209c-0.408,7.337 -0.902,12.626 -1.485,15.868c-11.643,-0.341 -23.781,-1.066 -36.414,-2.175c-12.633,-1.109 -25.528,-1.664 -38.685,-1.664c-6.52,0 -13.535,0.128 -21.045,0.384c-7.51,0.256 -14.874,0.597 -22.093,1.024c-7.219,0.427 -13.623,0.853 -19.211,1.28c-5.589,0.427 -9.664,0.81 -12.225,1.152Z"/><path d="M1737.433,2295.761c-1.048,-4.095 -1.805,-8.957 -2.27,-14.588c-0.466,-5.63 -0.757,-11.431 -0.873,-17.403c-0.116,-5.972 0.029,-11.559 0.437,-16.763c0.408,-5.204 0.961,-9.341 1.659,-12.412c1.397,-0.682 2.998,-2.09 4.803,-4.223c1.805,-2.133 3.377,-5.929 4.716,-11.389c1.339,-5.46 2.008,-13.479 2.008,-24.057c0,-10.237 -0.553,-18.171 -1.659,-23.801c-1.106,-5.63 -2.532,-9.64 -4.279,-12.029c-1.746,-2.389 -3.609,-3.754 -5.589,-4.095c-1.048,-3.583 -1.805,-8.147 -2.27,-13.692c-0.466,-5.545 -0.669,-11.303 -0.611,-17.275c0.058,-5.972 0.378,-11.73 0.961,-17.275c0.582,-5.545 1.455,-10.109 2.62,-13.692c2.794,0.341 6.404,0.725 10.828,1.152c4.424,0.427 9.169,0.853 14.234,1.28c5.065,0.427 9.984,0.768 14.758,1.024c4.774,0.256 8.965,0.384 12.575,0.384c5.239,0 10.683,-0.213 16.33,-0.64c5.647,-0.427 10.886,-0.981 15.718,-1.664c4.832,-0.682 8.703,-1.194 11.614,-1.536c1.048,3.583 1.776,8.36 2.183,14.332c0.408,5.972 0.553,12.242 0.437,18.811c-0.116,6.569 -0.408,12.839 -0.873,18.811c-0.466,5.972 -1.164,10.749 -2.096,14.332c-2.794,0 -4.861,1.578 -6.2,4.735c-1.339,3.156 -2.212,7.294 -2.62,12.412c-0.408,5.119 -0.611,10.578 -0.611,16.379l0,26.616l5.065,0c-0.233,-8.019 -0.204,-15.782 0.087,-23.289c0.291,-7.507 0.669,-12.882 1.135,-16.123c5.356,-1.365 11.439,-2.261 18.251,-2.687c6.811,-0.427 13.681,-0.427 20.609,0c6.928,0.427 13.128,1.322 18.6,2.687c0.699,4.436 1.252,10.706 1.659,18.811c0.408,8.104 0.64,17.062 0.699,26.872c0.058,9.811 0.029,19.45 -0.087,28.92c-0.116,9.469 -0.378,17.872 -0.786,25.209c-0.408,7.337 -0.902,12.626 -1.485,15.868c-11.643,-0.341 -23.781,-1.066 -36.414,-2.175c-12.633,-1.109 -25.528,-1.664 -38.685,-1.664c-6.52,0 -13.535,0.128 -21.045,0.384c-7.51,0.256 -14.874,0.597 -22.093,1.024c-7.219,0.427 -13.623,0.853 -19.211,1.28c-5.589,0.427 -9.664,0.81 -12.225,1.152Z" style="fill:none;"/><path d="M1578.677,2295.761c-1.048,-4.095 -1.805,-8.957 -2.27,-14.588c-0.466,-5.63 -0.757,-11.431 -0.873,-17.403c-0.116,-5.972 0.029,-11.559 0.437,-16.763c0.408,-5.204 0.961,-9.341 1.659,-12.412c1.397,-0.682 2.998,-2.09 4.803,-4.223c1.805,-2.133 3.377,-5.929 4.716,-11.389c1.339,-5.46 2.008,-13.479 2.008,-24.057c0,-10.237 -0.553,-18.171 -1.659,-23.801c-1.106,-5.63 -2.532,-9.64 -4.279,-12.029c-1.746,-2.389 -3.609,-3.754 -5.589,-4.095c-1.048,-3.583 -1.805,-8.147 -2.27,-13.692c-0.466,-5.545 -0.669,-11.303 -0.611,-17.275c0.058,-5.972 0.378,-11.73 0.961,-17.275c0.582,-5.545 1.455,-10.109 2.62,-13.692c2.794,0.341 6.404,0.725 10.828,1.152c4.424,0.427 9.169,0.853 14.234,1.28c5.065,0.427 9.984,0.768 14.758,1.024c4.774,0.256 8.965,0.384 12.575,0.384c5.239,0 10.683,-0.213 16.33,-0.64c5.647,-0.427 10.886,-0.981 15.718,-1.664c4.832,-0.682 8.703,-1.194 11.614,-1.536c1.048,3.583 1.776,8.36 2.183,14.332c0.408,5.972 0.553,12.242 0.437,18.811c-0.116,6.569 -0.408,12.839 -0.873,18.811c-0.466,5.972 -1.164,10.749 -2.096,14.332c-2.794,0 -4.861,1.578 -6.2,4.735c-1.339,3.156 -2.212,7.294 -2.62,12.412c-0.408,5.119 -0.611,10.578 -0.611,16.379l0,26.616l5.065,0c-0.233,-8.019 -0.204,-15.782 0.087,-23.289c0.291,-7.507 0.669,-12.882 1.135,-16.123c5.356,-1.365 11.439,-2.261 18.251,-2.687c6.811,-0.427 13.681,-0.427 20.609,0c6.928,0.427 13.128,1.322 18.6,2.687c0.699,4.436 1.252,10.706 1.659,18.811c0.408,8.104 0.64,17.062 0.699,26.872c0.058,9.811 0.029,19.45 -0.087,28.92c-0.116,9.469 -0.378,17.872 -0.786,25.209c-0.408,7.337 -0.902,12.626 -1.485,15.868c-11.643,-0.341 -23.781,-1.066 -36.414,-2.175c-12.633,-1.109 -25.528,-1.664 -38.685,-1.664c-6.52,0 -13.535,0.128 -21.045,0.384c-7.51,0.256 -14.874,0.597 -22.093,1.024c-7.219,0.427 -13.623,0.853 -19.211,1.28c-5.589,0.427 -9.664,0.81 -12.225,1.152Z"/><path d="M1578.677,2295.761c-1.048,-4.095 -1.805,-8.957 -2.27,-14.588c-0.466,-5.63 -0.757,-11.431 -0.873,-17.403c-0.116,-5.972 0.029,-11.559 0.437,-16.763c0.408,-5.204 0.961,-9.341 1.659,-12.412c1.397,-0.682 2.998,-2.09 4.803,-4.223c1.805,-2.133 3.377,-5.929 4.716,-11.389c1.339,-5.46 2.008,-13.479 2.008,-24.057c0,-10.237 -0.553,-18.171 -1.659,-23.801c-1.106,-5.63 -2.532,-9.64 -4.279,-12.029c-1.746,-2.389 -3.609,-3.754 -5.589,-4.095c-1.048,-3.583 -1.805,-8.147 -2.27,-13.692c-0.466,-5.545 -0.669,-11.303 -0.611,-17.275c0.058,-5.972 0.378,-11.73 0.961,-17.275c0.582,-5.545 1.455,-10.109 2.62,-13.692c2.794,0.341 6.404,0.725 10.828,1.152c4.424,0.427 9.169,0.853 14.234,1.28c5.065,0.427 9.984,0.768 14.758,1.024c4.774,0.256 8.965,0.384 12.575,0.384c5.239,0 10.683,-0.213 16.33,-0.64c5.647,-0.427 10.886,-0.981 15.718,-1.664c4.832,-0.682 8.703,-1.194 11.614,-1.536c1.048,3.583 1.776,8.36 2.183,14.332c0.408,5.972 0.553,12.242 0.437,18.811c-0.116,6.569 -0.408,12.839 -0.873,18.811c-0.466,5.972 -1.164,10.749 -2.096,14.332c-2.794,0 -4.861,1.578 -6.2,4.735c-1.339,3.156 -2.212,7.294 -2.62,12.412c-0.408,5.119 -0.611,10.578 -0.611,16.379l0,26.616l5.065,0c-0.233,-8.019 -0.204,-15.782 0.087,-23.289c0.291,-7.507 0.669,-12.882 1.135,-16.123c5.356,-1.365 11.439,-2.261 18.251,-2.687c6.811,-0.427 13.681,-0.427 20.609,0c6.928,0.427 13.128,1.322 18.6,2.687c0.699,4.436 1.252,10.706 1.659,18.811c0.408,8.104 0.64,17.062 0.699,26.872c0.058,9.811 0.029,19.45 -0.087,28.92c-0.116,9.469 -0.378,17.872 -0.786,25.209c-0.408,7.337 -0.902,12.626 -1.485,15.868c-11.643,-0.341 -23.781,-1.066 -36.414,-2.175c-12.633,-1.109 -25.528,-1.664 -38.685,-1.664c-6.52,0 -13.535,0.128 -21.045,0.384c-7.51,0.256 -14.874,0.597 -22.093,1.024c-7.219,0.427 -13.623,0.853 -19.211,1.28c-5.589,0.427 -9.664,0.81 -12.225,1.152Z" style="fill:none;"/><path d="M1472.141,2295.761c-1.048,-3.583 -1.863,-8.104 -2.445,-13.564c-0.582,-5.46 -0.931,-11.133 -1.048,-17.019c-0.116,-5.886 0.029,-11.559 0.437,-17.019c0.408,-5.46 1.019,-9.981 1.834,-13.564c1.746,-1.024 3.522,-2.773 5.327,-5.247c1.805,-2.474 3.289,-6.483 4.454,-12.029c1.164,-5.545 1.746,-13.351 1.746,-23.417c0,-10.92 -0.699,-19.152 -2.096,-24.697c-1.397,-5.545 -2.998,-9.299 -4.803,-11.261c-1.805,-1.962 -3.347,-2.943 -4.628,-2.943c-1.048,-3.071 -1.863,-7.251 -2.445,-12.54c-0.582,-5.289 -0.844,-10.962 -0.786,-17.019c0.058,-6.057 0.408,-11.943 1.048,-17.659c0.64,-5.716 1.601,-10.621 2.882,-14.716c3.493,0.341 7.976,0.853 13.448,1.536c5.472,0.682 11.265,1.237 17.378,1.664c6.113,0.427 11.789,0.64 17.028,0.64c5.822,0 11.818,-0.213 17.989,-0.64c6.171,-0.427 11.993,-0.981 17.465,-1.664c5.472,-0.682 9.955,-1.194 13.448,-1.536c1.164,4.095 2.038,9 2.62,14.716c0.582,5.716 0.873,11.645 0.873,17.787c0,6.142 -0.233,11.858 -0.699,17.147c-0.466,5.289 -1.223,9.469 -2.27,12.54c-1.746,0 -3.493,0.981 -5.239,2.943c-1.746,1.962 -3.202,5.673 -4.366,11.133c-1.164,5.46 -1.746,13.649 -1.746,24.569c0,10.066 0.611,17.872 1.834,23.417c1.223,5.545 2.707,9.555 4.454,12.029c1.746,2.474 3.493,4.223 5.239,5.247c0.931,3.583 1.572,8.104 1.921,13.564c0.349,5.46 0.466,11.133 0.349,17.019c-0.116,5.886 -0.466,11.559 -1.048,17.019c-0.582,5.46 -1.397,9.981 -2.445,13.564c-3.493,-0.512 -7.976,-1.066 -13.448,-1.664c-5.472,-0.597 -11.294,-1.152 -17.465,-1.664c-6.171,-0.512 -12.167,-0.768 -17.989,-0.768c-5.356,0 -10.974,0.256 -16.854,0.768c-5.88,0.512 -11.469,1.066 -16.766,1.664c-5.298,0.597 -9.693,1.152 -13.186,1.664Z" style="stroke:#000;stroke-width:1px;stroke-linecap:butt;stroke-miterlimit:2;"/><path d="M1277.757,2295.761c-0.931,-3.583 -1.688,-8.104 -2.27,-13.564c-0.582,-5.46 -0.902,-11.133 -0.961,-17.019c-0.058,-5.886 0.058,-11.559 0.349,-17.019c0.291,-5.46 0.844,-9.981 1.659,-13.564c1.863,-1.024 3.668,-2.773 5.414,-5.247c1.746,-2.474 3.202,-6.483 4.366,-12.029c1.164,-5.545 1.746,-13.351 1.746,-23.417c0,-10.92 -0.669,-19.152 -2.008,-24.697c-1.339,-5.545 -2.911,-9.299 -4.716,-11.261c-1.805,-1.962 -3.406,-2.943 -4.803,-2.943c-1.048,-3.071 -1.805,-7.251 -2.27,-12.54c-0.466,-5.289 -0.669,-10.962 -0.611,-17.019c0.058,-6.057 0.378,-11.943 0.961,-17.659c0.582,-5.716 1.455,-10.621 2.62,-14.716c3.26,0.341 7.452,0.81 12.575,1.408c5.123,0.597 10.566,1.109 16.33,1.536c5.763,0.427 11.207,0.64 16.33,0.64c9.897,0 18.222,-0.427 24.975,-1.28c6.753,-0.853 12.575,-1.621 17.465,-2.303c0.699,3.754 1.223,8.616 1.572,14.588c0.349,5.972 0.582,12.199 0.699,18.683c0.116,6.483 0.087,12.668 -0.087,18.555c-0.175,5.886 -0.495,10.792 -0.961,14.716l-4.192,0l0,11.773l13.972,0l0,-11.773l-4.366,0c-0.349,-3.924 -0.582,-8.829 -0.699,-14.716c-0.116,-5.886 -0.116,-12.071 0,-18.555c0.116,-6.483 0.349,-12.711 0.699,-18.683c0.349,-5.972 0.757,-10.834 1.223,-14.588c4.774,0.682 10.799,1.45 18.076,2.303c7.277,0.853 16.213,1.28 26.809,1.28c4.657,0 9.751,-0.213 15.282,-0.64c5.531,-0.427 10.857,-0.938 15.98,-1.536c5.123,-0.597 9.256,-1.066 12.4,-1.408c1.164,4.095 2.038,9 2.62,14.716c0.582,5.716 0.902,11.602 0.961,17.659c0.058,6.057 -0.146,11.73 -0.611,17.019c-0.466,5.289 -1.223,9.469 -2.27,12.54c-1.397,0 -2.998,0.981 -4.803,2.943c-1.805,1.962 -3.377,5.716 -4.716,11.261c-1.339,5.545 -2.008,13.777 -2.008,24.697c0,10.066 0.582,17.872 1.746,23.417c1.164,5.545 2.62,9.555 4.366,12.029c1.746,2.474 3.551,4.223 5.414,5.247c0.815,3.583 1.368,8.104 1.659,13.564c0.291,5.46 0.408,11.133 0.349,17.019c-0.058,5.886 -0.378,11.559 -0.961,17.019c-0.582,5.46 -1.339,9.981 -2.27,13.564c-4.774,-0.682 -10.566,-1.536 -17.378,-2.559c-6.811,-1.024 -15.398,-1.536 -25.761,-1.536c-9.315,0 -17.931,0.512 -25.848,1.536c-7.917,1.024 -14.263,1.877 -19.037,2.559c-0.466,-3.583 -0.873,-8.232 -1.223,-13.948c-0.349,-5.716 -0.582,-11.687 -0.699,-17.915c-0.116,-6.228 -0.116,-12.199 0,-17.915c0.116,-5.716 0.349,-10.365 0.699,-13.948l4.366,0l0,-13.052l-13.972,0l0,13.052l4.192,0c0.466,3.583 0.786,8.232 0.961,13.948c0.175,5.716 0.204,11.687 0.087,17.915c-0.116,6.228 -0.349,12.199 -0.699,17.915c-0.349,5.716 -0.873,10.365 -1.572,13.948c-3.26,-0.512 -6.666,-1.066 -10.217,-1.664c-3.551,-0.597 -7.888,-1.152 -13.011,-1.664c-5.123,-0.512 -11.585,-0.768 -19.386,-0.768c-9.431,0 -17.931,0.469 -25.499,1.408c-7.568,0.938 -13.914,1.834 -19.037,2.687Z"/><path d="M1277.757,2295.761c-0.931,-3.583 -1.688,-8.104 -2.27,-13.564c-0.582,-5.46 -0.902,-11.133 -0.961,-17.019c-0.058,-5.886 0.058,-11.559 0.349,-17.019c0.291,-5.46 0.844,-9.981 1.659,-13.564c1.863,-1.024 3.668,-2.773 5.414,-5.247c1.746,-2.474 3.202,-6.483 4.366,-12.029c1.164,-5.545 1.746,-13.351 1.746,-23.417c0,-10.92 -0.669,-19.152 -2.008,-24.697c-1.339,-5.545 -2.911,-9.299 -4.716,-11.261c-1.805,-1.962 -3.406,-2.943 -4.803,-2.943c-1.048,-3.071 -1.805,-7.251 -2.27,-12.54c-0.466,-5.289 -0.669,-10.962 -0.611,-17.019c0.058,-6.057 0.378,-11.943 0.961,-17.659c0.582,-5.716 1.455,-10.621 2.62,-14.716c3.26,0.341 7.452,0.81 12.575,1.408c5.123,0.597 10.566,1.109 16.33,1.536c5.763,0.427 11.207,0.64 16.33,0.64c9.897,0 18.222,-0.427 24.975,-1.28c6.753,-0.853 12.575,-1.621 17.465,-2.303c0.699,3.754 1.223,8.616 1.572,14.588c0.349,5.972 0.582,12.199 0.699,18.683c0.116,6.483 0.087,12.668 -0.087,18.555c-0.175,5.886 -0.495,10.792 -0.961,14.716l-4.192,0l0,11.773l13.972,0l0,-11.773l-4.366,0c-0.349,-3.924 -0.582,-8.829 -0.699,-14.716c-0.116,-5.886 -0.116,-12.071 0,-18.555c0.116,-6.483 0.349,-12.711 0.699,-18.683c0.349,-5.972 0.757,-10.834 1.223,-14.588c4.774,0.682 10.799,1.45 18.076,2.303c7.277,0.853 16.213,1.28 26.809,1.28c4.657,0 9.751,-0.213 15.282,-0.64c5.531,-0.427 10.857,-0.938 15.98,-1.536c5.123,-0.597 9.256,-1.066 12.4,-1.408c1.164,4.095 2.038,9 2.62,14.716c0.582,5.716 0.902,11.602 0.961,17.659c0.058,6.057 -0.146,11.73 -0.611,17.019c-0.466,5.289 -1.223,9.469 -2.27,12.54c-1.397,0 -2.998,0.981 -4.803,2.943c-1.805,1.962 -3.377,5.716 -4.716,11.261c-1.339,5.545 -2.008,13.777 -2.008,24.697c0,10.066 0.582,17.872 1.746,23.417c1.164,5.545 2.62,9.555 4.366,12.029c1.746,2.474 3.551,4.223 5.414,5.247c0.815,3.583 1.368,8.104 1.659,13.564c0.291,5.46 0.408,11.133 0.349,17.019c-0.058,5.886 -0.378,11.559 -0.961,17.019c-0.582,5.46 -1.339,9.981 -2.27,13.564c-4.774,-0.682 -10.566,-1.536 -17.378,-2.559c-6.811,-1.024 -15.398,-1.536 -25.761,-1.536c-9.315,0 -17.931,0.512 -25.848,1.536c-7.917,1.024 -14.263,1.877 -19.037,2.559c-0.466,-3.583 -0.873,-8.232 -1.223,-13.948c-0.349,-5.716 -0.582,-11.687 -0.699,-17.915c-0.116,-6.228 -0.116,-12.199 0,-17.915c0.116,-5.716 0.349,-10.365 0.699,-13.948l4.366,0l0,-13.052l-13.972,0l0,13.052l4.192,0c0.466,3.583 0.786,8.232 0.961,13.948c0.175,5.716 0.204,11.687 0.087,17.915c-0.116,6.228 -0.349,12.199 -0.699,17.915c-0.349,5.716 -0.873,10.365 -1.572,13.948c-3.26,-0.512 -6.666,-1.066 -10.217,-1.664c-3.551,-0.597 -7.888,-1.152 -13.011,-1.664c-5.123,-0.512 -11.585,-0.768 -19.386,-0.768c-9.431,0 -17.931,0.469 -25.499,1.408c-7.568,0.938 -13.914,1.834 -19.037,2.687Z" style="fill:none;"/><path d="M1187.114,2300.367c-21.307,0 -38.539,-4.521 -51.696,-13.564c-13.157,-9.043 -22.733,-21.711 -28.73,-38.005c-5.996,-16.294 -8.994,-35.19 -8.994,-56.688c0,-22.01 2.911,-40.778 8.732,-56.304c5.822,-15.526 13.885,-27.384 24.189,-35.574c10.304,-8.19 22.151,-12.285 35.541,-12.285c9.198,0 17.057,1.365 23.578,4.095c6.52,2.73 11.556,7.422 15.107,14.076c3.551,6.654 5.385,15.868 5.501,27.64c1.63,-6.483 2.241,-13.095 1.834,-19.834c-0.408,-6.739 -0.844,-13.522 -1.31,-20.346c5.589,-0.171 11.934,-0.384 19.037,-0.64c7.102,-0.256 14.03,-0.555 20.783,-0.896c6.753,-0.341 12.458,-0.512 17.116,-0.512c0.815,5.289 1.455,11.901 1.921,19.834c0.466,7.934 0.728,16.422 0.786,25.465c0.058,9.043 -0.087,17.915 -0.437,26.616c-0.349,8.702 -0.931,16.465 -1.746,23.289c-3.609,0.853 -8.15,1.536 -13.623,2.047c-5.472,0.512 -11.381,0.81 -17.727,0.896c-6.346,0.085 -12.633,0.085 -18.862,0c-6.229,-0.085 -11.963,-0.384 -17.203,-0.896c-5.239,-0.512 -9.547,-1.194 -12.924,-2.047l-0.175,-10.493l-9.256,0l0,33.015l9.256,0l0,-12.029c13.506,-1.024 26.809,-1.536 39.907,-1.536c13.099,0 27.041,0.512 41.828,1.536c-0.582,23.375 -3.755,42.697 -9.518,57.968c-5.763,15.27 -14.583,26.616 -26.459,34.038c-11.876,7.422 -27.362,11.133 -46.457,11.133Z"/><path d="M1187.114,2300.367c-21.307,0 -38.539,-4.521 -51.696,-13.564c-13.157,-9.043 -22.733,-21.711 -28.73,-38.005c-5.996,-16.294 -8.994,-35.19 -8.994,-56.688c0,-22.01 2.911,-40.778 8.732,-56.304c5.822,-15.526 13.885,-27.384 24.189,-35.574c10.304,-8.19 22.151,-12.285 35.541,-12.285c9.198,0 17.057,1.365 23.578,4.095c6.52,2.73 11.556,7.422 15.107,14.076c3.551,6.654 5.385,15.868 5.501,27.64c1.63,-6.483 2.241,-13.095 1.834,-19.834c-0.408,-6.739 -0.844,-13.522 -1.31,-20.346c5.589,-0.171 11.934,-0.384 19.037,-0.64c7.102,-0.256 14.03,-0.555 20.783,-0.896c6.753,-0.341 12.458,-0.512 17.116,-0.512c0.815,5.289 1.455,11.901 1.921,19.834c0.466,7.934 0.728,16.422 0.786,25.465c0.058,9.043 -0.087,17.915 -0.437,26.616c-0.349,8.702 -0.931,16.465 -1.746,23.289c-3.609,0.853 -8.15,1.536 -13.623,2.047c-5.472,0.512 -11.381,0.81 -17.727,0.896c-6.346,0.085 -12.633,0.085 -18.862,0c-6.229,-0.085 -11.963,-0.384 -17.203,-0.896c-5.239,-0.512 -9.547,-1.194 -12.924,-2.047l-0.175,-10.493l-9.256,0l0,33.015l9.256,0l0,-12.029c13.506,-1.024 26.809,-1.536 39.907,-1.536c13.099,0 27.041,0.512 41.828,1.536c-0.582,23.375 -3.755,42.697 -9.518,57.968c-5.763,15.27 -14.583,26.616 -26.459,34.038c-11.876,7.422 -27.362,11.133 -46.457,11.133Z" style="fill:none;"/></g></svg>